<svg width="60" height="60" viewBox="0 0 60 60" fill="none" xmlns="http://www.w3.org/2000/svg">
<rect width="60" height="60" rx="30" fill="black" fill-opacity="0.05"/>
<path fill-rule="evenodd" clip-rule="evenodd" d="M24.7092 17.2437C26.0777 17.1807 26.514 17.1667 30 17.1667C33.486 17.1667 33.9223 17.1819 35.2897 17.2437C36.657 17.3055 37.5903 17.5237 38.407 17.8399C39.2622 18.163 40.038 18.6682 40.6797 19.3215C41.333 19.962 41.837 20.7367 42.159 21.593C42.4763 22.4097 42.6933 23.343 42.7563 24.708C42.8193 26.0789 42.8333 26.5152 42.8333 30C42.8333 33.486 42.8182 33.9224 42.7563 35.2909C42.6945 36.6559 42.4763 37.5892 42.159 38.4059C41.837 39.2623 41.3322 40.0383 40.6797 40.6797C40.038 41.333 39.2622 41.837 38.407 42.159C37.5903 42.4764 36.657 42.6934 35.292 42.7564C33.9223 42.8194 33.486 42.8334 30 42.8334C26.514 42.8334 26.0777 42.8182 24.7092 42.7564C23.3442 42.6945 22.4108 42.4764 21.5942 42.159C20.7377 41.837 19.9618 41.3321 19.3203 40.6797C18.6674 40.0388 18.1622 39.2632 17.8398 38.407C17.5237 37.5904 17.3067 36.657 17.2437 35.292C17.1807 33.9212 17.1667 33.4849 17.1667 30C17.1667 26.514 17.1818 26.0777 17.2437 24.7104C17.3055 23.343 17.5237 22.4097 17.8398 21.593C18.1627 20.7368 18.6683 19.9612 19.3215 19.3204C19.962 18.6676 20.7372 18.1624 21.593 17.8399C22.4097 17.5237 23.3442 17.3067 24.7092 17.2437ZM35.1858 19.5537C33.8325 19.4919 33.4265 19.479 30 19.479C26.5735 19.479 26.1675 19.4919 24.8142 19.5537C23.5623 19.6109 22.8833 19.8197 22.4307 19.9959C21.8322 20.2292 21.404 20.5057 20.9548 20.9549C20.5291 21.3691 20.2014 21.8733 19.9958 22.4307C19.8197 22.8834 19.6108 23.5624 19.5537 24.8142C19.4918 26.1675 19.479 26.5735 19.479 30C19.479 33.4265 19.4918 33.8325 19.5537 35.1859C19.6108 36.4377 19.8197 37.1167 19.9958 37.5694C20.2012 38.1259 20.529 38.631 20.9548 39.0452C21.369 39.471 21.8742 39.7989 22.4307 40.0042C22.8833 40.1804 23.5623 40.3892 24.8142 40.4464C26.1675 40.5082 26.5723 40.521 30 40.521C33.4277 40.521 33.8325 40.5082 35.1858 40.4464C36.4377 40.3892 37.1167 40.1804 37.5693 40.0042C38.1678 39.7709 38.596 39.4944 39.0452 39.0452C39.471 38.631 39.7988 38.1259 40.0042 37.5694C40.1803 37.1167 40.3892 36.4377 40.4463 35.1859C40.5082 33.8325 40.521 33.4265 40.521 30C40.521 26.5735 40.5082 26.1675 40.4463 24.8142C40.3892 23.5624 40.1803 22.8834 40.0042 22.4307C39.7708 21.8322 39.4943 21.404 39.0452 20.9549C38.6309 20.5291 38.1267 20.2014 37.5693 19.9959C37.1167 19.8197 36.4377 19.6109 35.1858 19.5537ZM28.3608 33.9562C29.2763 34.3373 30.2956 34.3887 31.2447 34.1017C32.1939 33.8147 33.014 33.2071 33.5649 32.3826C34.1158 31.5582 34.3634 30.568 34.2654 29.5813C34.1674 28.5946 33.7298 27.6725 33.0275 26.9725C32.5798 26.5251 32.0384 26.1825 31.4424 25.9694C30.8464 25.7562 30.2105 25.6779 29.5806 25.7401C28.9507 25.8022 28.3423 26.0032 27.7994 26.3287C27.2565 26.6541 26.7925 27.0959 26.4409 27.6222C26.0892 28.1485 25.8586 28.7462 25.7656 29.3723C25.6726 29.9984 25.7197 30.6374 25.9033 31.2431C26.0869 31.8489 26.4026 32.4064 26.8275 32.8755C27.2525 33.3447 27.7761 33.7137 28.3608 33.9562ZM25.3357 25.3357C25.9482 24.7232 26.6754 24.2373 27.4757 23.9058C28.276 23.5743 29.1338 23.4037 30 23.4037C30.8662 23.4037 31.724 23.5743 32.5243 23.9058C33.3246 24.2373 34.0518 24.7232 34.6643 25.3357C35.2769 25.9482 35.7627 26.6754 36.0942 27.4757C36.4257 28.276 36.5964 29.1338 36.5964 30C36.5964 30.8663 36.4257 31.724 36.0942 32.5243C35.7627 33.3246 35.2769 34.0518 34.6643 34.6644C33.4273 35.9014 31.7495 36.5964 30 36.5964C28.2505 36.5964 26.5727 35.9014 25.3357 34.6644C24.0986 33.4273 23.4036 31.7495 23.4036 30C23.4036 28.2506 24.0986 26.5727 25.3357 25.3357ZM38.0593 24.386C38.2111 24.2428 38.3326 24.0706 38.4167 23.8797C38.5007 23.6887 38.5456 23.4828 38.5487 23.2741C38.5517 23.0655 38.5128 22.8583 38.4344 22.665C38.3559 22.4716 38.2395 22.2959 38.092 22.1484C37.9444 22.0008 37.7687 21.8844 37.5754 21.806C37.382 21.7275 37.1749 21.6887 36.9662 21.6917C36.7576 21.6947 36.5517 21.7396 36.3607 21.8237C36.1697 21.9077 35.9975 22.0292 35.8543 22.181C35.5759 22.4762 35.4234 22.8683 35.4293 23.2741C35.4352 23.6799 35.5991 24.0674 35.886 24.3543C36.173 24.6413 36.5605 24.8051 36.9662 24.811C37.372 24.817 37.7641 24.6645 38.0593 24.386Z" fill="#041827"/>
<rect x="0.5" y="0.5" width="59" height="59" rx="29.5" stroke="black" stroke-opacity="0.1"/>
</svg>
