<svg width="60" height="60" viewBox="0 0 60 60" fill="none" xmlns="http://www.w3.org/2000/svg">
<rect width="60" height="60" rx="30" fill="black" fill-opacity="0.05"/>
<path d="M42.2033 23C41.305 23.4084 40.3367 23.6767 39.3333 23.805C40.36 23.1867 41.1533 22.2067 41.5267 21.0284C40.5583 21.6117 39.485 22.02 38.3533 22.2534C37.4317 21.25 36.1367 20.6667 34.6667 20.6667C31.925 20.6667 29.685 22.9067 29.685 25.6717C29.685 26.0684 29.7317 26.4534 29.8133 26.815C25.66 26.605 21.9617 24.61 19.5 21.5884C19.0683 22.3234 18.8233 23.1867 18.8233 24.0967C18.8233 25.835 19.6983 27.375 21.0517 28.25C20.2233 28.25 19.4533 28.0167 18.7767 27.6667V27.7017C18.7767 30.1284 20.5033 32.1584 22.79 32.6134C22.0559 32.8143 21.2851 32.8422 20.5383 32.695C20.8552 33.6896 21.4758 34.5598 22.3129 35.1834C23.1499 35.807 24.1614 36.1527 25.205 36.1717C23.4359 37.5722 21.243 38.3292 18.9867 38.3184C18.59 38.3184 18.1933 38.295 17.7967 38.2484C20.0133 39.6717 22.65 40.5 25.4733 40.5C34.6667 40.5 39.7183 32.87 39.7183 26.255C39.7183 26.0334 39.7183 25.8234 39.7067 25.6017C40.6867 24.9017 41.5267 24.015 42.2033 23Z" fill="#041827"/>
<rect x="0.5" y="0.5" width="59" height="59" rx="29.5" stroke="black" stroke-opacity="0.1"/>
</svg>
